<svg width="366" height="379" viewBox="0 0 366 379" fill="none" xmlns="http://www.w3.org/2000/svg">
<path d="M365.636 122.549C365.636 122.624 365.717 122.684 365.818 122.684C365.918 122.684 366 122.744 366 122.819V370.54C366 375.212 360.879 379 354.562 379H11.4376C5.12077 379 0 375.212 0 370.54V173.443C.000580861 145.564 14.6301 128.012 52.2434 127.764C52.2509 127.743 52.2434 122.686 52.2434 122.686C52.2434 122.686 52.2434 117.592 52.2434 117.605C14.7994 117.214.366903 99.7218.36636 71.9333V8.45982C.36636 3.78759 5.48713 0 11.8039 0H119.828C122.695 0 125.44.811806 127.633 2.17756C142.462 13.9042 155.653 22.0735 183.334 22.0735C211.015 22.0735 224.206 13.9042 239.035 2.17757C241.228.811808 243.973 0 246.84 0H354.198C360.515 0 365.636 3.78759 365.636 8.45982V122.549Z" fill="black"/>
</svg>